# xmcd CD database file
# Copyright (C) 1993-1996 Ti Kan
#
# Track frame offsets:
#  150
#  17943
#  37807
#  54982
#  68489
#  83564
#  104550
#  121908
#  139175
#  159428
#  179540
#  194760
#  214175
#  230971
#  250951
#  275658
#
# Disc length: 3993 seconds
#
# Revision: 1
# Processed by: cddbd v1.5.1PL0 Copyright (c) Steve Scherf et al.
# Submitted via: Advanced CD Ripper Pro 2.0
#
DISCID=e90f9710
DTITLE=Marshall - Song's of man
DYEAR=2003
DGENRE=other
TTITLE0=Nashi
TTITLE1=V Rossiyskoi storone
TTITLE2=Ataman
TTITLE3=Vchera-segodnja
TTITLE4=58 - i
TTITLE5=Est v prostorah Rossii
TTITLE6=Zhizn kabackaja
TTITLE7=Na svadbe
TTITLE8=Milaja
TTITLE9=Limita
TTITLE10=Pesnja shipacha
TTITLE11=Zhuravli - zhuravli
TTITLE12=Raseja
TTITLE13=Posvjashenie Visotckomu
TTITLE14=Beskrestje
TTITLE15=Batka Machno
EXTD=
EXTT0=
EXTT1=
EXTT2=
EXTT3=
EXTT4=
EXTT5=
EXTT6=
EXTT7=
EXTT8=
EXTT9=
EXTT10=
EXTT11=
EXTT12=
EXTT13=
EXTT14=
EXTT15=
PLAYORDER=
